<svg width="1600" height="900" viewBox="0 0 1600 900" fill="none" xmlns="http://www.w3.org/2000/svg">
  <rect width="1600" height="900" fill="#0f0f0f"/>
  <g opacity="0.2">
    <path d="M0 120H1600" stroke="#2a2a2a"/>
    <path d="M0 240H1600" stroke="#2a2a2a"/>
    <path d="M0 360H1600" stroke="#2a2a2a"/>
    <path d="M0 480H1600" stroke="#2a2a2a"/>
    <path d="M0 600H1600" stroke="#2a2a2a"/>
    <path d="M0 720H1600" stroke="#2a2a2a"/>
    <path d="M0 840H1600" stroke="#2a2a2a"/>
    <path d="M160 0V900" stroke="#2a2a2a"/>
    <path d="M320 0V900" stroke="#2a2a2a"/>
    <path d="M480 0V900" stroke="#2a2a2a"/>
    <path d="M640 0V900" stroke="#2a2a2a"/>
    <path d="M800 0V900" stroke="#2a2a2a"/>
    <path d="M960 0V900" stroke="#2a2a2a"/>
    <path d="M1120 0V900" stroke="#2a2a2a"/>
    <path d="M1280 0V900" stroke="#2a2a2a"/>
    <path d="M1440 0V900" stroke="#2a2a2a"/>
  </g>
  <circle cx="1260" cy="120" r="180" fill="url(#paint0_radial)" fill-opacity="0.55"/>
  <circle cx="320" cy="760" r="220" fill="url(#paint1_radial)" fill-opacity="0.24"/>
  <circle cx="1180" cy="510" r="320" stroke="#facc15" stroke-opacity="0.18" stroke-width="2"/>
  <circle cx="1180" cy="510" r="240" stroke="#facc15" stroke-opacity="0.12" stroke-width="2"/>
  <circle cx="1180" cy="510" r="160" stroke="#facc15" stroke-opacity="0.12" stroke-width="2"/>
  <path d="M70 670C236 571 421 513 621 501C852 487 988 576 1216 528C1333 503 1440 451 1532 389" stroke="#facc15" stroke-opacity="0.48" stroke-width="4" stroke-linecap="round"/>
  <path d="M196 727C375 643 566 601 768 603C962 605 1117 657 1298 592C1373 565 1445 522 1512 468" stroke="white" stroke-opacity="0.12" stroke-width="2" stroke-linecap="round"/>
  <g opacity="0.8">
    <circle cx="1113" cy="592" r="8" fill="#facc15"/>
    <circle cx="1298" cy="592" r="11" fill="#facc15"/>
    <circle cx="621" cy="501" r="7" fill="#facc15"/>
  </g>
  <defs>
    <radialGradient id="paint0_radial" cx="0" cy="0" r="1" gradientUnits="userSpaceOnUse" gradientTransform="translate(1260 120) rotate(90) scale(180)">
      <stop stop-color="#facc15"/>
      <stop offset="1" stop-color="#facc15" stop-opacity="0"/>
    </radialGradient>
    <radialGradient id="paint1_radial" cx="0" cy="0" r="1" gradientUnits="userSpaceOnUse" gradientTransform="translate(320 760) rotate(90) scale(220)">
      <stop stop-color="white"/>
      <stop offset="1" stop-color="white" stop-opacity="0"/>
    </radialGradient>
  </defs>
</svg>
